<?xml version="1.0" encoding="us-ascii" standalone="no"?><svg xmlns="http://www.w3.org/2000/svg" xmlns:xlink="http://www.w3.org/1999/xlink" contentStyleType="text/css" height="637px" preserveAspectRatio="none" style="width:1239px;height:637px;background:#FFFFFF;" version="1.1" viewBox="0 0 1239 637" width="1239px" zoomAndPan="magnify"><defs/><g><text fill="#000000" font-family="sans-serif" font-size="14" font-weight="bold" lengthAdjust="spacing" textLength="172" x="526.5" y="23.5352">Stack Technique MLOps</text><!--cluster Interfaces Utilisateur--><g id="cluster_Interfaces Utilisateur"><path d="M8.5,43.4883 L161.5,43.4883 A3.75,3.75 0 0 1 164,45.9883 L171,65.9766 L266.5,65.9766 A2.5,2.5 0 0 1 269,68.4766 L269,260.9583 A2.5,2.5 0 0 1 266.5,263.4583 L8.5,263.4583 A2.5,2.5 0 0 1 6,260.9583 L6,45.9883 A2.5,2.5 0 0 1 8.5,43.4883 " fill="#E3F2FD" style="stroke:#90CAF9;stroke-width:1.5;"/><line style="stroke:#90CAF9;stroke-width:1.5;" x1="6" x2="171" y1="65.9766" y2="65.9766"/><text fill="#000000" font-family="sans-serif" font-size="14" font-weight="bold" lengthAdjust="spacing" textLength="152" x="10" y="59.0234">Interfaces Utilisateur</text><text fill="#000000" font-family="sans-serif" font-size="14" font-style="italic" lengthAdjust="spacing" textLength="28" x="127.5" y="81.5117">&#171;UI&#187;</text></g><!--cluster Services Applicatifs--><g id="cluster_Services Applicatifs"><path d="M904.5,43.4883 L1046.5,43.4883 A3.75,3.75 0 0 1 1049,45.9883 L1056,65.9766 L1229.5,65.9766 A2.5,2.5 0 0 1 1232,68.4766 L1232,154.4783 A2.5,2.5 0 0 1 1229.5,156.9783 L904.5,156.9783 A2.5,2.5 0 0 1 902,154.4783 L902,45.9883 A2.5,2.5 0 0 1 904.5,43.4883 " fill="#E8F5E9" style="stroke:#A5D6A7;stroke-width:1.5;"/><line style="stroke:#A5D6A7;stroke-width:1.5;" x1="902" x2="1056" y1="65.9766" y2="65.9766"/><text fill="#000000" font-family="sans-serif" font-size="14" font-weight="bold" lengthAdjust="spacing" textLength="141" x="906" y="59.0234">Services Applicatifs</text><text fill="#000000" font-family="sans-serif" font-size="14" font-style="italic" lengthAdjust="spacing" textLength="69" x="1036.5" y="81.5117">&#171;Services&#187;</text></g><!--cluster Orchestration & Traitement--><g id="cluster_Orchestration &amp; Traitement"><path d="M295.5,43.4883 L495.5,43.4883 A3.75,3.75 0 0 1 498,45.9883 L505,65.9766 L875.5,65.9766 A2.5,2.5 0 0 1 878,68.4766 L878,398.4483 A2.5,2.5 0 0 1 875.5,400.9483 L295.5,400.9483 A2.5,2.5 0 0 1 293,398.4483 L293,45.9883 A2.5,2.5 0 0 1 295.5,43.4883 " fill="#FFF8E1" style="stroke:#FFE082;stroke-width:1.5;"/><line style="stroke:#FFE082;stroke-width:1.5;" x1="293" x2="505" y1="65.9766" y2="65.9766"/><text fill="#000000" font-family="sans-serif" font-size="14" font-weight="bold" lengthAdjust="spacing" textLength="199" x="297" y="59.0234">Orchestration &amp; Traitement</text><text fill="#000000" font-family="sans-serif" font-size="14" font-style="italic" lengthAdjust="spacing" textLength="108" x="535.5" y="81.5117">&#171;Orchestration&#187;</text></g><!--cluster Stockage & Fichiers--><g id="cluster_Stockage &amp; Fichiers"><path d="M10.5,287.4583 L151.5,287.4583 A3.75,3.75 0 0 1 154,289.9583 L161,309.9466 L266.5,309.9466 A2.5,2.5 0 0 1 269,312.4466 L269,504.9383 A2.5,2.5 0 0 1 266.5,507.4383 L10.5,507.4383 A2.5,2.5 0 0 1 8,504.9383 L8,289.9583 A2.5,2.5 0 0 1 10.5,287.4583 " fill="#F3E5F5" style="stroke:#CE93D8;stroke-width:1.5;"/><line style="stroke:#CE93D8;stroke-width:1.5;" x1="8" x2="161" y1="309.9466" y2="309.9466"/><text fill="#000000" font-family="sans-serif" font-size="14" font-weight="bold" lengthAdjust="spacing" textLength="140" x="12" y="302.9934">Stockage &amp; Fichiers</text><text fill="#000000" font-family="sans-serif" font-size="14" font-style="italic" lengthAdjust="spacing" textLength="76" x="104.5" y="325.4817">&#171;Stockage&#187;</text></g><!--cluster Monitoring--><g id="cluster_Monitoring"><path d="M904.5,287.4583 L985.5,287.4583 A3.75,3.75 0 0 1 988,289.9583 L995,309.9466 L1187.5,309.9466 A2.5,2.5 0 0 1 1190,312.4466 L1190,504.9383 A2.5,2.5 0 0 1 1187.5,507.4383 L904.5,507.4383 A2.5,2.5 0 0 1 902,504.9383 L902,289.9583 A2.5,2.5 0 0 1 904.5,287.4583 " fill="#ECEFF1" style="stroke:#B0BEC5;stroke-width:1.5;"/><line style="stroke:#B0BEC5;stroke-width:1.5;" x1="902" x2="995" y1="309.9466" y2="309.9466"/><text fill="#000000" font-family="sans-serif" font-size="14" font-weight="bold" lengthAdjust="spacing" textLength="80" x="906" y="302.9934">Monitoring</text><text fill="#000000" font-family="sans-serif" font-size="14" font-style="italic" lengthAdjust="spacing" textLength="90" x="1005" y="325.4817">&#171;Monitoring&#187;</text></g><!--entity Streamlit--><g id="elem_Streamlit"><rect fill="#F1F1F1" height="46.4883" rx="2.5" ry="2.5" style="stroke:#181818;stroke-width:0.5;" width="101" x="22.5" y="94.4883"/><rect fill="#F1F1F1" height="10" style="stroke:#181818;stroke-width:0.5;" width="15" x="103.5" y="99.4883"/><rect fill="#F1F1F1" height="2" style="stroke:#181818;stroke-width:0.5;" width="4" x="101.5" y="101.4883"/><rect fill="#F1F1F1" height="2" style="stroke:#181818;stroke-width:0.5;" width="4" x="101.5" y="105.4883"/><text fill="#000000" font-family="sans-serif" font-size="14" lengthAdjust="spacing" textLength="61" x="37.5" y="128.0234">Streamlit</text></g><!--entity Grafana--><g id="elem_Grafana"><rect fill="#F1F1F1" height="46.4883" rx="2.5" ry="2.5" style="stroke:#181818;stroke-width:0.5;" width="94" x="159" y="94.4883"/><rect fill="#F1F1F1" height="10" style="stroke:#181818;stroke-width:0.5;" width="15" x="233" y="99.4883"/><rect fill="#F1F1F1" height="2" style="stroke:#181818;stroke-width:0.5;" width="4" x="231" y="101.4883"/><rect fill="#F1F1F1" height="2" style="stroke:#181818;stroke-width:0.5;" width="4" x="231" y="105.4883"/><text fill="#000000" font-family="sans-serif" font-size="14" lengthAdjust="spacing" textLength="54" x="174" y="128.0234">Grafana</text></g><!--entity pgAdmin--><g id="elem_pgAdmin"><rect fill="#F1F1F1" height="46.4883" rx="2.5" ry="2.5" style="stroke:#181818;stroke-width:0.5;" width="103" x="26.5" y="200.9783"/><rect fill="#F1F1F1" height="10" style="stroke:#181818;stroke-width:0.5;" width="15" x="109.5" y="205.9783"/><rect fill="#F1F1F1" height="2" style="stroke:#181818;stroke-width:0.5;" width="4" x="107.5" y="207.9783"/><rect fill="#F1F1F1" height="2" style="stroke:#181818;stroke-width:0.5;" width="4" x="107.5" y="211.9783"/><text fill="#000000" font-family="sans-serif" font-size="14" lengthAdjust="spacing" textLength="63" x="41.5" y="234.5134">pgAdmin</text></g><!--entity Auth (JWT)--><g id="elem_Auth (JWT)"><rect fill="#F1F1F1" height="46.4883" rx="2.5" ry="2.5" style="stroke:#181818;stroke-width:0.5;" width="112" x="918" y="94.4883"/><rect fill="#F1F1F1" height="10" style="stroke:#181818;stroke-width:0.5;" width="15" x="1010" y="99.4883"/><rect fill="#F1F1F1" height="2" style="stroke:#181818;stroke-width:0.5;" width="4" x="1008" y="101.4883"/><rect fill="#F1F1F1" height="2" style="stroke:#181818;stroke-width:0.5;" width="4" x="1008" y="105.4883"/><text fill="#000000" font-family="sans-serif" font-size="14" lengthAdjust="spacing" textLength="72" x="933" y="128.0234">Auth (JWT)</text></g><!--entity Predict (FastAPI)--><g id="elem_Predict (FastAPI)"><rect fill="#F1F1F1" height="46.4883" rx="2.5" ry="2.5" style="stroke:#181818;stroke-width:0.5;" width="151" x="1065.5" y="94.4883"/><rect fill="#F1F1F1" height="10" style="stroke:#181818;stroke-width:0.5;" width="15" x="1196.5" y="99.4883"/><rect fill="#F1F1F1" height="2" style="stroke:#181818;stroke-width:0.5;" width="4" x="1194.5" y="101.4883"/><rect fill="#F1F1F1" height="2" style="stroke:#181818;stroke-width:0.5;" width="4" x="1194.5" y="105.4883"/><text fill="#000000" font-family="sans-serif" font-size="14" lengthAdjust="spacing" textLength="111" x="1080.5" y="128.0234">Predict (FastAPI)</text></g><!--entity Airflow Scheduler--><g id="elem_Airflow Scheduler"><rect fill="#F1F1F1" height="46.4883" rx="2.5" ry="2.5" style="stroke:#181818;stroke-width:0.5;" width="161" x="308.5" y="94.4883"/><rect fill="#F1F1F1" height="10" style="stroke:#181818;stroke-width:0.5;" width="15" x="449.5" y="99.4883"/><rect fill="#F1F1F1" height="2" style="stroke:#181818;stroke-width:0.5;" width="4" x="447.5" y="101.4883"/><rect fill="#F1F1F1" height="2" style="stroke:#181818;stroke-width:0.5;" width="4" x="447.5" y="105.4883"/><text fill="#000000" font-family="sans-serif" font-size="14" lengthAdjust="spacing" textLength="121" x="323.5" y="128.0234">Airflow Scheduler</text></g><!--entity Airflow Worker--><g id="elem_Airflow Worker"><rect fill="#F1F1F1" height="46.4883" rx="2.5" ry="2.5" style="stroke:#181818;stroke-width:0.5;" width="142" x="504" y="94.4883"/><rect fill="#F1F1F1" height="10" style="stroke:#181818;stroke-width:0.5;" width="15" x="626" y="99.4883"/><rect fill="#F1F1F1" height="2" style="stroke:#181818;stroke-width:0.5;" width="4" x="624" y="101.4883"/><rect fill="#F1F1F1" height="2" style="stroke:#181818;stroke-width:0.5;" width="4" x="624" y="105.4883"/><text fill="#000000" font-family="sans-serif" font-size="14" lengthAdjust="spacing" textLength="102" x="519" y="128.0234">Airflow Worker</text></g><!--entity Airflow Web UI--><g id="elem_Airflow Web UI"><rect fill="#F1F1F1" height="46.4883" rx="2.5" ry="2.5" style="stroke:#181818;stroke-width:0.5;" width="140" x="681" y="94.4883"/><rect fill="#F1F1F1" height="10" style="stroke:#181818;stroke-width:0.5;" width="15" x="801" y="99.4883"/><rect fill="#F1F1F1" height="2" style="stroke:#181818;stroke-width:0.5;" width="4" x="799" y="101.4883"/><rect fill="#F1F1F1" height="2" style="stroke:#181818;stroke-width:0.5;" width="4" x="799" y="105.4883"/><text fill="#000000" font-family="sans-serif" font-size="14" lengthAdjust="spacing" textLength="100" x="696" y="128.0234">Airflow Web UI</text></g><!--entity Extract Text (PyTesseract)--><g id="elem_Extract Text (PyTesseract)"><rect fill="#F1F1F1" height="46.4883" rx="2.5" ry="2.5" style="stroke:#181818;stroke-width:0.5;" width="217" x="309.5" y="200.9783"/><rect fill="#F1F1F1" height="10" style="stroke:#181818;stroke-width:0.5;" width="15" x="506.5" y="205.9783"/><rect fill="#F1F1F1" height="2" style="stroke:#181818;stroke-width:0.5;" width="4" x="504.5" y="207.9783"/><rect fill="#F1F1F1" height="2" style="stroke:#181818;stroke-width:0.5;" width="4" x="504.5" y="211.9783"/><text fill="#000000" font-family="sans-serif" font-size="14" lengthAdjust="spacing" textLength="177" x="324.5" y="234.5134">Extract Text (PyTesseract)</text></g><!--entity Process Text--><g id="elem_Process Text"><rect fill="#F1F1F1" height="46.4883" rx="2.5" ry="2.5" style="stroke:#181818;stroke-width:0.5;" width="127" x="561.5" y="200.9783"/><rect fill="#F1F1F1" height="10" style="stroke:#181818;stroke-width:0.5;" width="15" x="668.5" y="205.9783"/><rect fill="#F1F1F1" height="2" style="stroke:#181818;stroke-width:0.5;" width="4" x="666.5" y="207.9783"/><rect fill="#F1F1F1" height="2" style="stroke:#181818;stroke-width:0.5;" width="4" x="666.5" y="211.9783"/><text fill="#000000" font-family="sans-serif" font-size="14" lengthAdjust="spacing" textLength="87" x="576.5" y="234.5134">Process Text</text></g><!--entity Process Image--><g id="elem_Process Image"><rect fill="#F1F1F1" height="46.4883" rx="2.5" ry="2.5" style="stroke:#181818;stroke-width:0.5;" width="138" x="724" y="200.9783"/><rect fill="#F1F1F1" height="10" style="stroke:#181818;stroke-width:0.5;" width="15" x="842" y="205.9783"/><rect fill="#F1F1F1" height="2" style="stroke:#181818;stroke-width:0.5;" width="4" x="840" y="207.9783"/><rect fill="#F1F1F1" height="2" style="stroke:#181818;stroke-width:0.5;" width="4" x="840" y="211.9783"/><text fill="#000000" font-family="sans-serif" font-size="14" lengthAdjust="spacing" textLength="98" x="739" y="234.5134">Process Image</text></g><!--entity Compute Embeddings (CLIP/CDIP)--><g id="elem_Compute Embeddings (CLIP/CDIP)"><rect fill="#F1F1F1" height="46.4883" rx="2.5" ry="2.5" style="stroke:#181818;stroke-width:0.5;" width="274" x="309" y="338.4583"/><rect fill="#F1F1F1" height="10" style="stroke:#181818;stroke-width:0.5;" width="15" x="563" y="343.4583"/><rect fill="#F1F1F1" height="2" style="stroke:#181818;stroke-width:0.5;" width="4" x="561" y="345.4583"/><rect fill="#F1F1F1" height="2" style="stroke:#181818;stroke-width:0.5;" width="4" x="561" y="349.4583"/><text fill="#000000" font-family="sans-serif" font-size="14" lengthAdjust="spacing" textLength="234" x="324" y="371.9934">Compute Embeddings (CLIP/CDIP)</text></g><!--entity Train--><g id="elem_Train"><rect fill="#F1F1F1" height="46.4883" rx="2.5" ry="2.5" style="stroke:#181818;stroke-width:0.5;" width="76" x="618" y="338.4583"/><rect fill="#F1F1F1" height="10" style="stroke:#181818;stroke-width:0.5;" width="15" x="674" y="343.4583"/><rect fill="#F1F1F1" height="2" style="stroke:#181818;stroke-width:0.5;" width="4" x="672" y="345.4583"/><rect fill="#F1F1F1" height="2" style="stroke:#181818;stroke-width:0.5;" width="4" x="672" y="349.4583"/><text fill="#000000" font-family="sans-serif" font-size="14" lengthAdjust="spacing" textLength="36" x="633" y="371.9934">Train</text></g><!--entity MLflow--><g id="elem_MLflow"><rect fill="#F1F1F1" height="46.4883" rx="2.5" ry="2.5" style="stroke:#181818;stroke-width:0.5;" width="88" x="729" y="338.4583"/><rect fill="#F1F1F1" height="10" style="stroke:#181818;stroke-width:0.5;" width="15" x="797" y="343.4583"/><rect fill="#F1F1F1" height="2" style="stroke:#181818;stroke-width:0.5;" width="4" x="795" y="345.4583"/><rect fill="#F1F1F1" height="2" style="stroke:#181818;stroke-width:0.5;" width="4" x="795" y="349.4583"/><text fill="#000000" font-family="sans-serif" font-size="14" lengthAdjust="spacing" textLength="48" x="744" y="371.9934">MLflow</text></g><!--entity PostgreSQL--><g id="elem_PostgreSQL"><rect fill="#F1F1F1" height="46.4883" rx="2.5" ry="2.5" style="stroke:#181818;stroke-width:0.5;" width="118" x="24" y="338.4583"/><rect fill="#F1F1F1" height="10" style="stroke:#181818;stroke-width:0.5;" width="15" x="122" y="343.4583"/><rect fill="#F1F1F1" height="2" style="stroke:#181818;stroke-width:0.5;" width="4" x="120" y="345.4583"/><rect fill="#F1F1F1" height="2" style="stroke:#181818;stroke-width:0.5;" width="4" x="120" y="349.4583"/><text fill="#000000" font-family="sans-serif" font-size="14" lengthAdjust="spacing" textLength="78" x="39" y="371.9934">PostgreSQL</text></g><!--entity Redis--><g id="elem_Redis"><rect fill="#F1F1F1" height="46.4883" rx="2.5" ry="2.5" style="stroke:#181818;stroke-width:0.5;" width="77" x="176.5" y="338.4583"/><rect fill="#F1F1F1" height="10" style="stroke:#181818;stroke-width:0.5;" width="15" x="233.5" y="343.4583"/><rect fill="#F1F1F1" height="2" style="stroke:#181818;stroke-width:0.5;" width="4" x="231.5" y="345.4583"/><rect fill="#F1F1F1" height="2" style="stroke:#181818;stroke-width:0.5;" width="4" x="231.5" y="349.4583"/><text fill="#000000" font-family="sans-serif" font-size="14" lengthAdjust="spacing" textLength="37" x="191.5" y="371.9934">Redis</text></g><!--entity Filesystem (Artifacts)--><g id="elem_Filesystem (Artifacts)"><rect fill="#F1F1F1" height="46.4883" rx="2.5" ry="2.5" style="stroke:#181818;stroke-width:0.5;" width="182" x="24" y="444.9483"/><rect fill="#F1F1F1" height="10" style="stroke:#181818;stroke-width:0.5;" width="15" x="186" y="449.9483"/><rect fill="#F1F1F1" height="2" style="stroke:#181818;stroke-width:0.5;" width="4" x="184" y="451.9483"/><rect fill="#F1F1F1" height="2" style="stroke:#181818;stroke-width:0.5;" width="4" x="184" y="455.9483"/><text fill="#000000" font-family="sans-serif" font-size="14" lengthAdjust="spacing" textLength="142" x="39" y="478.4834">Filesystem (Artifacts)</text></g><!--entity Prometheus--><g id="elem_Prometheus"><rect fill="#F1F1F1" height="46.4883" rx="2.5" ry="2.5" style="stroke:#181818;stroke-width:0.5;" width="122" x="918" y="338.4583"/><rect fill="#F1F1F1" height="10" style="stroke:#181818;stroke-width:0.5;" width="15" x="1020" y="343.4583"/><rect fill="#F1F1F1" height="2" style="stroke:#181818;stroke-width:0.5;" width="4" x="1018" y="345.4583"/><rect fill="#F1F1F1" height="2" style="stroke:#181818;stroke-width:0.5;" width="4" x="1018" y="349.4583"/><text fill="#000000" font-family="sans-serif" font-size="14" lengthAdjust="spacing" textLength="82" x="933" y="371.9934">Prometheus</text></g><!--entity cAdvisor--><g id="elem_cAdvisor"><rect fill="#F1F1F1" height="46.4883" rx="2.5" ry="2.5" style="stroke:#181818;stroke-width:0.5;" width="99" x="1074.5" y="338.4583"/><rect fill="#F1F1F1" height="10" style="stroke:#181818;stroke-width:0.5;" width="15" x="1153.5" y="343.4583"/><rect fill="#F1F1F1" height="2" style="stroke:#181818;stroke-width:0.5;" width="4" x="1151.5" y="345.4583"/><rect fill="#F1F1F1" height="2" style="stroke:#181818;stroke-width:0.5;" width="4" x="1151.5" y="349.4583"/><text fill="#000000" font-family="sans-serif" font-size="14" lengthAdjust="spacing" textLength="59" x="1089.5" y="371.9934">cAdvisor</text></g><!--entity Postgres Exporters--><g id="elem_Postgres Exporters"><rect fill="#F1F1F1" height="46.4883" rx="2.5" ry="2.5" style="stroke:#181818;stroke-width:0.5;" width="170" x="918" y="444.9483"/><rect fill="#F1F1F1" height="10" style="stroke:#181818;stroke-width:0.5;" width="15" x="1068" y="449.9483"/><rect fill="#F1F1F1" height="2" style="stroke:#181818;stroke-width:0.5;" width="4" x="1066" y="451.9483"/><rect fill="#F1F1F1" height="2" style="stroke:#181818;stroke-width:0.5;" width="4" x="1066" y="455.9483"/><text fill="#000000" font-family="sans-serif" font-size="14" lengthAdjust="spacing" textLength="130" x="933" y="478.4834">Postgres Exporters</text></g><rect fill="none" height="92.4414" id="_legend" rx="7.5" ry="7.5" style="stroke:#000000;stroke-width:1.0;" width="112" x="12" y="525.4383"/><text fill="#E3F2FD" font-family="sans-serif" font-size="14" lengthAdjust="spacing" textLength="14" x="17" y="543.9734">UI</text><text fill="#000000" font-family="sans-serif" font-size="14" lengthAdjust="spacing" textLength="4" x="31" y="543.9734">,</text><text fill="#E8F5E9" font-family="sans-serif" font-size="14" lengthAdjust="spacing" textLength="55" x="17" y="560.4617">Services</text><text fill="#000000" font-family="sans-serif" font-size="14" lengthAdjust="spacing" textLength="4" x="72" y="560.4617">,</text><text fill="#FFF8E1" font-family="sans-serif" font-size="14" lengthAdjust="spacing" textLength="94" x="17" y="576.95">Orchestration</text><text fill="#000000" font-family="sans-serif" font-size="14" lengthAdjust="spacing" textLength="4" x="111" y="576.95">,</text><text fill="#F3E5F5" font-family="sans-serif" font-size="14" lengthAdjust="spacing" textLength="62" x="17" y="593.4383">Stockage</text><text fill="#000000" font-family="sans-serif" font-size="14" lengthAdjust="spacing" textLength="4" x="79" y="593.4383">,</text><text fill="#ECEFF1" font-family="sans-serif" font-size="14" lengthAdjust="spacing" textLength="76" x="17" y="609.9266">Monitoring</text><!--SRC=[TLDTQzim57tNhxYqiAKmQDUIBHd1u3hsy4XfjYJqOUH1iMyIKLdo9BaVbFwVzNVqZqsIaoLENJ_9znxEFUVeoZ334IQ6PhSmnMmjs9yAuMfqNMf2z2qJ9LMqW8NjhvIiH1v9BXKS9_xRGvGMGLS8JmJiTzd43mQpD0ZWEBv8pfDXZP0gHzNezi-YCEcJTe89gZkMeVOqlQGRzz_Ix6F2xl1B-FKTickLhL4RHGsJmg6jbrxy-IrZ2p0-wvs_fz587u87NiJTfDkYSGyJnVsBOUyTiYifc96AYPMt7CL9qYAmYReykuoZBdacv2ECNbzMA7A4pf9c5JVMmX9AMId0Xr8gSq8uEW1mN1eoo1pVjyqD1RDqSEehmIVOzNpimJRb5aGTOz18hGtcimcsKRIDydQ3dRijXbZ5jMxdCPALcmHOb8o_ljYJfaB3ah_-TNL2jbjvb0g3oWPX8JF3EDFKOAMEOBDxRcj_Jun2Md1cvkxlkw9BAgW_bwimBvYOksJ_KsvpWB0iESjSljeHxcsXfmqhiuREZvlfYUSQAynPPg2JK6t2SNhIP6ra1nzWgYWpMA0mZljm7-i1J2svl8U9xUKLHpNVhzv8TNjOmWNCKb-A7ooPLJF51ojf_3X5hT5LjcAbTQ9zkr582wlMLo9Pb9L1Y8i5vhczAWsTQ9IEJwDXEgvPd0VXJrSZ9-0WnyqQMBC9ozOCLHtZxg5ubsEfpKhXvEV8C_soAMf_IXX7_QXjID09bRq5gruVfBfR94VTU3HF6ri5cZLMDMKMvdTCopgrpM0DiNytLbvpFvx9Fm00]--></g></svg>