<?xml version="1.0" encoding="us-ascii" standalone="no"?><svg xmlns="http://www.w3.org/2000/svg" xmlns:xlink="http://www.w3.org/1999/xlink" contentStyleType="text/css" height="1151px" preserveAspectRatio="none" style="width:1179px;height:1151px;background:#FFFFFF;" version="1.1" viewBox="0 0 1179 1151" width="1179px" zoomAndPan="magnify"><defs/><g><text fill="#000000" font-family="sans-serif" font-size="14" font-weight="bold" lengthAdjust="spacing" textLength="290" x="437.5" y="23.5352">Stack Technique - Infrastructure MLOps</text><!--cluster Interfaces Utilisateur--><g id="cluster_Interfaces Utilisateur"><path d="M84.5,818.9083 L237.5,818.9083 A3.75,3.75 0 0 1 240,821.4083 L247,841.3966 L481.5,841.3966 A2.5,2.5 0 0 1 484,843.8966 L484,913.8883 A2.5,2.5 0 0 1 481.5,916.3883 L84.5,916.3883 A2.5,2.5 0 0 1 82,913.8883 L82,821.4083 A2.5,2.5 0 0 1 84.5,818.9083 " fill="none" style="stroke:#000000;stroke-width:1.5;"/><line style="stroke:#000000;stroke-width:1.5;" x1="82" x2="247" y1="841.3966" y2="841.3966"/><text fill="#000000" font-family="sans-serif" font-size="14" font-weight="bold" lengthAdjust="spacing" textLength="152" x="86" y="834.4434">Interfaces Utilisateur</text></g><!--cluster Services Applicatifs--><g id="cluster_Services Applicatifs"><path d="M8.5,940.3883 L150.5,940.3883 A3.75,3.75 0 0 1 153,942.8883 L160,962.8766 L185.5,962.8766 A2.5,2.5 0 0 1 188,965.3766 L188,1141.8683 A2.5,2.5 0 0 1 185.5,1144.3683 L8.5,1144.3683 A2.5,2.5 0 0 1 6,1141.8683 L6,942.8883 A2.5,2.5 0 0 1 8.5,940.3883 " fill="none" style="stroke:#000000;stroke-width:1.5;"/><line style="stroke:#000000;stroke-width:1.5;" x1="6" x2="160" y1="962.8766" y2="962.8766"/><text fill="#000000" font-family="sans-serif" font-size="14" font-weight="bold" lengthAdjust="spacing" textLength="141" x="10" y="955.9234">Services Applicatifs</text></g><!--cluster Orchestration & Traitement--><g id="cluster_Orchestration &amp; Traitement"><path d="M510.5,43.4883 L710.5,43.4883 A3.75,3.75 0 0 1 713,45.9883 L720,65.9766 L912.5,65.9766 A2.5,2.5 0 0 1 915,68.4766 L915,913.8883 A2.5,2.5 0 0 1 912.5,916.3883 L510.5,916.3883 A2.5,2.5 0 0 1 508,913.8883 L508,45.9883 A2.5,2.5 0 0 1 510.5,43.4883 " fill="none" style="stroke:#000000;stroke-width:1.5;"/><line style="stroke:#000000;stroke-width:1.5;" x1="508" x2="720" y1="65.9766" y2="65.9766"/><text fill="#000000" font-family="sans-serif" font-size="14" font-weight="bold" lengthAdjust="spacing" textLength="199" x="512" y="59.0234">Orchestration &amp; Traitement</text></g><!--cluster Stockage & Fichiers--><g id="cluster_Stockage &amp; Fichiers"><path d="M610.5,940.3883 L751.5,940.3883 A3.75,3.75 0 0 1 754,942.8883 L761,962.8766 L1113.5,962.8766 A2.5,2.5 0 0 1 1116,965.3766 L1116,1035.3783 A2.5,2.5 0 0 1 1113.5,1037.8783 L610.5,1037.8783 A2.5,2.5 0 0 1 608,1035.3783 L608,942.8883 A2.5,2.5 0 0 1 610.5,940.3883 " fill="none" style="stroke:#000000;stroke-width:1.5;"/><line style="stroke:#000000;stroke-width:1.5;" x1="608" x2="761" y1="962.8766" y2="962.8766"/><text fill="#000000" font-family="sans-serif" font-size="14" font-weight="bold" lengthAdjust="spacing" textLength="140" x="612" y="955.9234">Stockage &amp; Fichiers</text></g><!--cluster Monitoring--><g id="cluster_Monitoring"><path d="M214.5,940.3883 L295.5,940.3883 A3.75,3.75 0 0 1 298,942.8883 L305,962.8766 L545.5,962.8766 A2.5,2.5 0 0 1 548,965.3766 L548,1141.8683 A2.5,2.5 0 0 1 545.5,1144.3683 L214.5,1144.3683 A2.5,2.5 0 0 1 212,1141.8683 L212,942.8883 A2.5,2.5 0 0 1 214.5,940.3883 " fill="none" style="stroke:#000000;stroke-width:1.5;"/><line style="stroke:#000000;stroke-width:1.5;" x1="212" x2="305" y1="962.8766" y2="962.8766"/><text fill="#000000" font-family="sans-serif" font-size="14" font-weight="bold" lengthAdjust="spacing" textLength="80" x="216" y="955.9234">Monitoring</text></g><!--entity Streamlit--><g id="elem_Streamlit"><rect fill="#F1F1F1" height="46.4883" rx="2.5" ry="2.5" style="stroke:#181818;stroke-width:0.5;" width="101" x="98.5" y="853.9083"/><rect fill="#F1F1F1" height="10" style="stroke:#181818;stroke-width:0.5;" width="15" x="179.5" y="858.9083"/><rect fill="#F1F1F1" height="2" style="stroke:#181818;stroke-width:0.5;" width="4" x="177.5" y="860.9083"/><rect fill="#F1F1F1" height="2" style="stroke:#181818;stroke-width:0.5;" width="4" x="177.5" y="864.9083"/><text fill="#000000" font-family="sans-serif" font-size="14" lengthAdjust="spacing" textLength="61" x="113.5" y="887.4434">Streamlit</text></g><!--entity pgAdmin--><g id="elem_pgAdmin"><rect fill="#F1F1F1" height="46.4883" rx="2.5" ry="2.5" style="stroke:#181818;stroke-width:0.5;" width="103" x="364.5" y="853.9083"/><rect fill="#F1F1F1" height="10" style="stroke:#181818;stroke-width:0.5;" width="15" x="447.5" y="858.9083"/><rect fill="#F1F1F1" height="2" style="stroke:#181818;stroke-width:0.5;" width="4" x="445.5" y="860.9083"/><rect fill="#F1F1F1" height="2" style="stroke:#181818;stroke-width:0.5;" width="4" x="445.5" y="864.9083"/><text fill="#000000" font-family="sans-serif" font-size="14" lengthAdjust="spacing" textLength="63" x="379.5" y="887.4434">pgAdmin</text></g><!--entity Grafana--><g id="elem_Grafana"><rect fill="#F1F1F1" height="46.4883" rx="2.5" ry="2.5" style="stroke:#181818;stroke-width:0.5;" width="94" x="235" y="853.9083"/><rect fill="#F1F1F1" height="10" style="stroke:#181818;stroke-width:0.5;" width="15" x="309" y="858.9083"/><rect fill="#F1F1F1" height="2" style="stroke:#181818;stroke-width:0.5;" width="4" x="307" y="860.9083"/><rect fill="#F1F1F1" height="2" style="stroke:#181818;stroke-width:0.5;" width="4" x="307" y="864.9083"/><text fill="#000000" font-family="sans-serif" font-size="14" lengthAdjust="spacing" textLength="54" x="250" y="887.4434">Grafana</text></g><!--entity Auth (JWT)--><g id="elem_Auth (JWT)"><rect fill="#F1F1F1" height="46.4883" rx="2.5" ry="2.5" style="stroke:#181818;stroke-width:0.5;" width="112" x="41" y="1081.8783"/><rect fill="#F1F1F1" height="10" style="stroke:#181818;stroke-width:0.5;" width="15" x="133" y="1086.8783"/><rect fill="#F1F1F1" height="2" style="stroke:#181818;stroke-width:0.5;" width="4" x="131" y="1088.8783"/><rect fill="#F1F1F1" height="2" style="stroke:#181818;stroke-width:0.5;" width="4" x="131" y="1092.8783"/><text fill="#000000" font-family="sans-serif" font-size="14" lengthAdjust="spacing" textLength="72" x="56" y="1115.4134">Auth (JWT)</text></g><!--entity Predict (FastAPI)--><g id="elem_Predict (FastAPI)"><rect fill="#F1F1F1" height="46.4883" rx="2.5" ry="2.5" style="stroke:#181818;stroke-width:0.5;" width="151" x="21.5" y="975.3883"/><rect fill="#F1F1F1" height="10" style="stroke:#181818;stroke-width:0.5;" width="15" x="152.5" y="980.3883"/><rect fill="#F1F1F1" height="2" style="stroke:#181818;stroke-width:0.5;" width="4" x="150.5" y="982.3883"/><rect fill="#F1F1F1" height="2" style="stroke:#181818;stroke-width:0.5;" width="4" x="150.5" y="986.3883"/><text fill="#000000" font-family="sans-serif" font-size="14" lengthAdjust="spacing" textLength="111" x="36.5" y="1008.9234">Predict (FastAPI)</text></g><!--entity Airflow Scheduler--><g id="elem_Airflow Scheduler"><rect fill="#F1F1F1" height="46.4883" rx="2.5" ry="2.5" style="stroke:#181818;stroke-width:0.5;" width="161" x="650.5" y="184.9783"/><rect fill="#F1F1F1" height="10" style="stroke:#181818;stroke-width:0.5;" width="15" x="791.5" y="189.9783"/><rect fill="#F1F1F1" height="2" style="stroke:#181818;stroke-width:0.5;" width="4" x="789.5" y="191.9783"/><rect fill="#F1F1F1" height="2" style="stroke:#181818;stroke-width:0.5;" width="4" x="789.5" y="195.9783"/><text fill="#000000" font-family="sans-serif" font-size="14" lengthAdjust="spacing" textLength="121" x="665.5" y="218.5134">Airflow Scheduler</text></g><!--entity Airflow Worker--><g id="elem_Airflow Worker"><rect fill="#F1F1F1" height="46.4883" rx="2.5" ry="2.5" style="stroke:#181818;stroke-width:0.5;" width="142" x="555" y="291.4583"/><rect fill="#F1F1F1" height="10" style="stroke:#181818;stroke-width:0.5;" width="15" x="677" y="296.4583"/><rect fill="#F1F1F1" height="2" style="stroke:#181818;stroke-width:0.5;" width="4" x="675" y="298.4583"/><rect fill="#F1F1F1" height="2" style="stroke:#181818;stroke-width:0.5;" width="4" x="675" y="302.4583"/><text fill="#000000" font-family="sans-serif" font-size="14" lengthAdjust="spacing" textLength="102" x="570" y="324.9934">Airflow Worker</text></g><!--entity Airflow Web UI--><g id="elem_Airflow Web UI"><rect fill="#F1F1F1" height="46.4883" rx="2.5" ry="2.5" style="stroke:#181818;stroke-width:0.5;" width="140" x="661" y="78.4883"/><rect fill="#F1F1F1" height="10" style="stroke:#181818;stroke-width:0.5;" width="15" x="781" y="83.4883"/><rect fill="#F1F1F1" height="2" style="stroke:#181818;stroke-width:0.5;" width="4" x="779" y="85.4883"/><rect fill="#F1F1F1" height="2" style="stroke:#181818;stroke-width:0.5;" width="4" x="779" y="89.4883"/><text fill="#000000" font-family="sans-serif" font-size="14" lengthAdjust="spacing" textLength="100" x="676" y="112.0234">Airflow Web UI</text></g><!--entity Extract Text (PyTesseract)--><g id="elem_Extract Text (PyTesseract)"><rect fill="#F1F1F1" height="46.4883" rx="2.5" ry="2.5" style="stroke:#181818;stroke-width:0.5;" width="217" x="681.5" y="397.9483"/><rect fill="#F1F1F1" height="10" style="stroke:#181818;stroke-width:0.5;" width="15" x="878.5" y="402.9483"/><rect fill="#F1F1F1" height="2" style="stroke:#181818;stroke-width:0.5;" width="4" x="876.5" y="404.9483"/><rect fill="#F1F1F1" height="2" style="stroke:#181818;stroke-width:0.5;" width="4" x="876.5" y="408.9483"/><text fill="#000000" font-family="sans-serif" font-size="14" lengthAdjust="spacing" textLength="177" x="696.5" y="431.4834">Extract Text (PyTesseract)</text></g><!--entity Process Text--><g id="elem_Process Text"><rect fill="#F1F1F1" height="46.4883" rx="2.5" ry="2.5" style="stroke:#181818;stroke-width:0.5;" width="127" x="771.5" y="504.4383"/><rect fill="#F1F1F1" height="10" style="stroke:#181818;stroke-width:0.5;" width="15" x="878.5" y="509.4383"/><rect fill="#F1F1F1" height="2" style="stroke:#181818;stroke-width:0.5;" width="4" x="876.5" y="511.4383"/><rect fill="#F1F1F1" height="2" style="stroke:#181818;stroke-width:0.5;" width="4" x="876.5" y="515.4383"/><text fill="#000000" font-family="sans-serif" font-size="14" lengthAdjust="spacing" textLength="87" x="786.5" y="537.9734">Process Text</text></g><!--entity Process Image--><g id="elem_Process Image"><rect fill="#F1F1F1" height="46.4883" rx="2.5" ry="2.5" style="stroke:#181818;stroke-width:0.5;" width="138" x="598" y="504.4383"/><rect fill="#F1F1F1" height="10" style="stroke:#181818;stroke-width:0.5;" width="15" x="716" y="509.4383"/><rect fill="#F1F1F1" height="2" style="stroke:#181818;stroke-width:0.5;" width="4" x="714" y="511.4383"/><rect fill="#F1F1F1" height="2" style="stroke:#181818;stroke-width:0.5;" width="4" x="714" y="515.4383"/><text fill="#000000" font-family="sans-serif" font-size="14" lengthAdjust="spacing" textLength="98" x="613" y="537.9734">Process Image</text></g><!--entity Compute Embeddings (CLIP/CDIP)--><g id="elem_Compute Embeddings (CLIP/CDIP)"><rect fill="#F1F1F1" height="46.4883" rx="2.5" ry="2.5" style="stroke:#181818;stroke-width:0.5;" width="274" x="561" y="610.9283"/><rect fill="#F1F1F1" height="10" style="stroke:#181818;stroke-width:0.5;" width="15" x="815" y="615.9283"/><rect fill="#F1F1F1" height="2" style="stroke:#181818;stroke-width:0.5;" width="4" x="813" y="617.9283"/><rect fill="#F1F1F1" height="2" style="stroke:#181818;stroke-width:0.5;" width="4" x="813" y="621.9283"/><text fill="#000000" font-family="sans-serif" font-size="14" lengthAdjust="spacing" textLength="234" x="576" y="644.4634">Compute Embeddings (CLIP/CDIP)</text></g><!--entity Train--><g id="elem_Train"><rect fill="#F1F1F1" height="46.4883" rx="2.5" ry="2.5" style="stroke:#181818;stroke-width:0.5;" width="76" x="660" y="732.4183"/><rect fill="#F1F1F1" height="10" style="stroke:#181818;stroke-width:0.5;" width="15" x="716" y="737.4183"/><rect fill="#F1F1F1" height="2" style="stroke:#181818;stroke-width:0.5;" width="4" x="714" y="739.4183"/><rect fill="#F1F1F1" height="2" style="stroke:#181818;stroke-width:0.5;" width="4" x="714" y="743.4183"/><text fill="#000000" font-family="sans-serif" font-size="14" lengthAdjust="spacing" textLength="36" x="675" y="765.9534">Train</text></g><!--entity MLflow--><g id="elem_MLflow"><rect fill="#F1F1F1" height="46.4883" rx="2.5" ry="2.5" style="stroke:#181818;stroke-width:0.5;" width="88" x="671" y="853.9083"/><rect fill="#F1F1F1" height="10" style="stroke:#181818;stroke-width:0.5;" width="15" x="739" y="858.9083"/><rect fill="#F1F1F1" height="2" style="stroke:#181818;stroke-width:0.5;" width="4" x="737" y="860.9083"/><rect fill="#F1F1F1" height="2" style="stroke:#181818;stroke-width:0.5;" width="4" x="737" y="864.9083"/><text fill="#000000" font-family="sans-serif" font-size="14" lengthAdjust="spacing" textLength="48" x="686" y="887.4434">MLflow</text></g><!--entity Postgres--><g id="elem_Postgres"><path d="M841,985.8883 C841,975.8883 890,975.8883 890,975.8883 C890,975.8883 939,975.8883 939,985.8883 L939,1011.3766 C939,1021.3766 890,1021.3766 890,1021.3766 C890,1021.3766 841,1021.3766 841,1011.3766 L841,985.8883 " fill="#F1F1F1" style="stroke:#181818;stroke-width:0.5;"/><path d="M841,985.8883 C841,995.8883 890,995.8883 890,995.8883 C890,995.8883 939,995.8883 939,985.8883 " fill="none" style="stroke:#181818;stroke-width:0.5;"/><text fill="#000000" font-family="sans-serif" font-size="14" lengthAdjust="spacing" textLength="78" x="851" y="1013.4234">PostgreSQL</text></g><!--entity Redis Broker--><g id="elem_Redis Broker"><rect fill="#F1F1F1" height="46.4883" rx="2.5" ry="2.5" style="stroke:#181818;stroke-width:0.5;" width="126" x="974" y="975.3883"/><rect fill="#F1F1F1" height="10" style="stroke:#181818;stroke-width:0.5;" width="15" x="1080" y="980.3883"/><rect fill="#F1F1F1" height="2" style="stroke:#181818;stroke-width:0.5;" width="4" x="1078" y="982.3883"/><rect fill="#F1F1F1" height="2" style="stroke:#181818;stroke-width:0.5;" width="4" x="1078" y="986.3883"/><text fill="#000000" font-family="sans-serif" font-size="14" lengthAdjust="spacing" textLength="86" x="989" y="1008.9234">Redis Broker</text></g><!--entity Filesystem (Artifacts)--><g id="elem_Filesystem (Artifacts)"><rect fill="#F1F1F1" height="46.4883" rx="2.5" ry="2.5" style="stroke:#181818;stroke-width:0.5;" width="182" x="624" y="975.3883"/><rect fill="#F1F1F1" height="10" style="stroke:#181818;stroke-width:0.5;" width="15" x="786" y="980.3883"/><rect fill="#F1F1F1" height="2" style="stroke:#181818;stroke-width:0.5;" width="4" x="784" y="982.3883"/><rect fill="#F1F1F1" height="2" style="stroke:#181818;stroke-width:0.5;" width="4" x="784" y="986.3883"/><text fill="#000000" font-family="sans-serif" font-size="14" lengthAdjust="spacing" textLength="142" x="639" y="1008.9234">Filesystem (Artifacts)</text></g><!--entity Prometheus--><g id="elem_Prometheus"><rect fill="#F1F1F1" height="46.4883" rx="2.5" ry="2.5" style="stroke:#181818;stroke-width:0.5;" width="122" x="252" y="975.3883"/><rect fill="#F1F1F1" height="10" style="stroke:#181818;stroke-width:0.5;" width="15" x="354" y="980.3883"/><rect fill="#F1F1F1" height="2" style="stroke:#181818;stroke-width:0.5;" width="4" x="352" y="982.3883"/><rect fill="#F1F1F1" height="2" style="stroke:#181818;stroke-width:0.5;" width="4" x="352" y="986.3883"/><text fill="#000000" font-family="sans-serif" font-size="14" lengthAdjust="spacing" textLength="82" x="267" y="1008.9234">Prometheus</text></g><!--entity cAdvisor--><g id="elem_cAdvisor"><rect fill="#F1F1F1" height="46.4883" rx="2.5" ry="2.5" style="stroke:#181818;stroke-width:0.5;" width="99" x="432.5" y="1081.8783"/><rect fill="#F1F1F1" height="10" style="stroke:#181818;stroke-width:0.5;" width="15" x="511.5" y="1086.8783"/><rect fill="#F1F1F1" height="2" style="stroke:#181818;stroke-width:0.5;" width="4" x="509.5" y="1088.8783"/><rect fill="#F1F1F1" height="2" style="stroke:#181818;stroke-width:0.5;" width="4" x="509.5" y="1092.8783"/><text fill="#000000" font-family="sans-serif" font-size="14" lengthAdjust="spacing" textLength="59" x="447.5" y="1115.4134">cAdvisor</text></g><!--entity Postgres Exporters--><g id="elem_Postgres Exporters"><rect fill="#F1F1F1" height="46.4883" rx="2.5" ry="2.5" style="stroke:#181818;stroke-width:0.5;" width="170" x="228" y="1081.8783"/><rect fill="#F1F1F1" height="10" style="stroke:#181818;stroke-width:0.5;" width="15" x="378" y="1086.8783"/><rect fill="#F1F1F1" height="2" style="stroke:#181818;stroke-width:0.5;" width="4" x="376" y="1088.8783"/><rect fill="#F1F1F1" height="2" style="stroke:#181818;stroke-width:0.5;" width="4" x="376" y="1092.8783"/><text fill="#000000" font-family="sans-serif" font-size="14" lengthAdjust="spacing" textLength="130" x="243" y="1115.4134">Postgres Exporters</text></g><!--entity User--><g id="elem_User"><ellipse cx="282" cy="725.9183" fill="#F1F1F1" rx="8" ry="8" style="stroke:#181818;stroke-width:0.5;"/><path d="M282,733.9183 L282,760.9183 M269,741.9183 L295,741.9183 M282,760.9183 L269,775.9183 M282,760.9183 L295,775.9183 " fill="none" style="stroke:#181818;stroke-width:0.5;"/><text fill="#000000" font-family="sans-serif" font-size="14" lengthAdjust="spacing" textLength="70" x="247" y="790.9534">Utilisateur</text></g><!--link User to Streamlit--><g id="link_User_Streamlit"><path d="M246.54,785.4983 C236.84,793.5883 226.42,802.4683 217,810.9083 C201.52,824.7583 188.95,836.7335 175.89,849.5035 " fill="none" id="User-to-Streamlit" style="stroke:#181818;stroke-width:1.0;"/><polygon fill="#181818" points="171.6,853.6983,180.8315,850.2662,175.175,850.2027,175.2385,844.5462,171.6,853.6983" style="stroke:#181818;stroke-width:1.0;"/></g><!--link User to Grafana--><g id="link_User_Grafana"><path d="M282,794.1383 C282,813.5783 282,830.6783 282,847.4083 " fill="none" id="User-to-Grafana" style="stroke:#181818;stroke-width:1.0;"/><polygon fill="#181818" points="282,853.4083,286,844.4083,282,848.4083,278,844.4083,282,853.4083" style="stroke:#181818;stroke-width:1.0;"/></g><!--link User to pgAdmin--><g id="link_User_pgAdmin"><path d="M317.42,785.5483 C327.11,793.6283 337.55,802.5083 347,810.9083 C362.53,824.6983 375.168,836.5566 388.378,849.2766 " fill="none" id="User-to-pgAdmin" style="stroke:#181818;stroke-width:1.0;"/><polygon fill="#181818" points="392.7,853.4383,388.9914,844.3143,389.0983,849.9702,383.4425,850.0771,392.7,853.4383" style="stroke:#181818;stroke-width:1.0;"/></g><!--link Streamlit to Predict (FastAPI)--><g id="link_Streamlit_Predict (FastAPI)"><path d="M139.22,900.6183 C129.92,921.9883 118.4137,948.4264 109.1337,969.7564 " fill="none" id="Streamlit-to-Predict (FastAPI)" style="stroke:#181818;stroke-width:1.0;"/><polygon fill="#181818" points="106.74,975.2583,113.9984,968.6013,108.7347,970.6734,106.6626,965.4097,106.74,975.2583" style="stroke:#181818;stroke-width:1.0;"/></g><!--link Predict (FastAPI) to Auth (JWT)--><g id="link_Predict (FastAPI)_Auth (JWT)"><path d="M97,1022.3083 C97,1039.8383 97,1057.9783 97,1075.4983 " fill="none" id="Predict (FastAPI)-to-Auth (JWT)" style="stroke:#181818;stroke-width:1.0;"/><polygon fill="#181818" points="97,1081.4983,101,1072.4983,97,1076.4983,93,1072.4983,97,1081.4983" style="stroke:#181818;stroke-width:1.0;"/></g><!--link Airflow Scheduler to Airflow Worker--><g id="link_Airflow Scheduler_Airflow Worker"><path d="M708.22,231.8883 C690.6,249.4183 670.5923,269.3253 652.9923,286.8453 " fill="none" id="Airflow Scheduler-to-Airflow Worker" style="stroke:#181818;stroke-width:1.0;"/><polygon fill="#181818" points="648.74,291.0783,657.9404,287.5637,652.2836,287.5508,652.2965,281.894,648.74,291.0783" style="stroke:#181818;stroke-width:1.0;"/></g><!--link Airflow Web UI to Airflow Scheduler--><g id="link_Airflow Web UI_Airflow Scheduler"><path d="M731,125.3983 C731,142.9283 731,161.0783 731,178.5883 " fill="none" id="Airflow Web UI-to-Airflow Scheduler" style="stroke:#181818;stroke-width:1.0;"/><polygon fill="#181818" points="731,184.5883,735,175.5883,731,179.5883,727,175.5883,731,184.5883" style="stroke:#181818;stroke-width:1.0;"/></g><!--link Airflow Worker to Extract Text (PyTesseract)--><g id="link_Airflow Worker_Extract Text (PyTesseract)"><path d="M661.59,338.3783 C689.09,355.9083 721.9302,376.8236 749.4202,394.3436 " fill="none" id="Airflow Worker-to-Extract Text (PyTesseract)" style="stroke:#181818;stroke-width:1.0;"/><polygon fill="#181818" points="754.48,397.5683,749.0401,389.358,750.2635,394.881,744.7405,396.1044,754.48,397.5683" style="stroke:#181818;stroke-width:1.0;"/></g><!--link Airflow Worker to Process Text--><g id="link_Airflow Worker_Process Text"><path d="M630.36,338.2383 C637,370.6683 650.34,428.3783 664,444.4383 C691.64,476.9383 729.3984,495.6404 765.5784,508.1304 " fill="none" id="Airflow Worker-to-Process Text" style="stroke:#181818;stroke-width:1.0;"/><polygon fill="#181818" points="771.25,510.0883,764.048,503.3704,766.5237,508.4567,761.4374,510.9324,771.25,510.0883" style="stroke:#181818;stroke-width:1.0;"/></g><!--link Airflow Worker to Process Image--><g id="link_Airflow Worker_Process Image"><path d="M625.84,338.3183 C626.09,364.2483 627.87,407.8983 636,444.4383 C640.64,465.2883 647.0907,482.4245 654.1407,498.6645 " fill="none" id="Airflow Worker-to-Process Image" style="stroke:#181818;stroke-width:1.0;"/><polygon fill="#181818" points="656.53,504.1683,656.6153,494.3198,654.539,499.5818,649.2769,497.5055,656.53,504.1683" style="stroke:#181818;stroke-width:1.0;"/></g><!--link Airflow Worker to Compute Embeddings (CLIP/CDIP)--><g id="link_Airflow Worker_Compute Embeddings (CLIP/CDIP)"><path d="M602.51,338.1583 C570.59,381.6883 525.24,479.5483 562.5,550.9283 C576.31,577.3783 597.601,594.3206 623.851,607.7806 " fill="none" id="Airflow Worker-to-Compute Embeddings (CLIP/CDIP)" style="stroke:#181818;stroke-width:1.0;"/><polygon fill="#181818" points="629.19,610.5183,623.0066,602.8524,624.7408,608.2369,619.3564,609.9712,629.19,610.5183" style="stroke:#181818;stroke-width:1.0;"/></g><!--link Airflow Worker to Compute Embeddings (CLIP/CDIP)--><g id="link_Airflow Worker_Compute Embeddings (CLIP/CDIP)"><path d="M622.39,338.1583 C605.59,381.6883 560.24,479.5483 597.5,550.9283 C611.31,577.3783 632.7797,593.9971 655.4697,607.4571 " fill="none" id="Airflow Worker-to-Compute Embeddings (CLIP/CDIP)-1" style="stroke:#181818;stroke-width:1.0;"/><polygon fill="#181818" points="660.63,610.5183,654.9303,602.4863,656.3297,607.9673,650.8487,609.3667,660.63,610.5183" style="stroke:#181818;stroke-width:1.0;"/></g><!--link Airflow Worker to Train--><g id="link_Airflow Worker_Train"><path d="M603.42,338.3883 C589.54,353.8183 572.78,375.4583 564,397.9483 C521.93,505.7283 487,556.1783 543,657.4183 C567.68,702.0283 616.7148,726.8409 654.0648,740.7009 " fill="none" id="Airflow Worker-to-Train" style="stroke:#181818;stroke-width:1.0;"/><polygon fill="#181818" points="659.69,742.7883,652.6438,735.907,655.0023,741.0488,649.8606,743.4073,659.69,742.7883" style="stroke:#181818;stroke-width:1.0;"/></g><!--link Process Text to Compute Embeddings (CLIP/CDIP)--><g id="link_Process Text_Compute Embeddings (CLIP/CDIP)"><path d="M805.27,551.3583 C782.29,568.8783 755.4009,589.3898 732.4409,606.8998 " fill="none" id="Process Text-to-Compute Embeddings (CLIP/CDIP)" style="stroke:#181818;stroke-width:1.0;"/><polygon fill="#181818" points="727.67,610.5383,737.252,608.2612,731.6458,607.5062,732.4007,601.9,727.67,610.5383" style="stroke:#181818;stroke-width:1.0;"/></g><!--link Process Image to Compute Embeddings (CLIP/CDIP)--><g id="link_Process Image_Compute Embeddings (CLIP/CDIP)"><path d="M673.73,551.3583 C678.93,568.8783 684.3819,587.2766 689.5819,604.7866 " fill="none" id="Process Image-to-Compute Embeddings (CLIP/CDIP)" style="stroke:#181818;stroke-width:1.0;"/><polygon fill="#181818" points="691.29,610.5383,692.5623,600.772,689.8666,605.7452,684.8934,603.0494,691.29,610.5383" style="stroke:#181818;stroke-width:1.0;"/></g><!--link Extract Text (PyTesseract) to Process Text--><g id="link_Extract Text (PyTesseract)_Process Text"><path d="M799.76,444.8683 C807.31,462.3883 815.3381,481.027 822.8781,498.547 " fill="none" id="Extract Text (PyTesseract)-to-Process Text" style="stroke:#181818;stroke-width:1.0;"/><polygon fill="#181818" points="825.25,504.0583,825.3664,494.2101,823.2734,499.4655,818.018,497.3726,825.25,504.0583" style="stroke:#181818;stroke-width:1.0;"/></g><!--link Compute Embeddings (CLIP/CDIP) to Postgres--><g id="link_Compute Embeddings (CLIP/CDIP)_Postgres"><path d="M714.61,657.6383 C726.27,673.8483 741.88,696.4883 754,717.4183 C807.78,810.3083 857.5539,922.1088 878.2639,970.1288 " fill="none" id="Compute Embeddings (CLIP/CDIP)-to-Postgres" style="stroke:#181818;stroke-width:1.0;"/><polygon fill="#181818" points="880.64,975.6383,880.7488,965.79,878.6599,971.0471,873.4029,968.9582,880.64,975.6383" style="stroke:#181818;stroke-width:1.0;"/></g><!--link Compute Embeddings (CLIP/CDIP) to Train--><g id="link_Compute Embeddings (CLIP/CDIP)_Train"><path d="M698,657.6483 C698,679.0083 698,704.9583 698,726.2883 " fill="none" id="Compute Embeddings (CLIP/CDIP)-to-Train" style="stroke:#181818;stroke-width:1.0;"/><polygon fill="#181818" points="698,732.2883,702,723.2883,698,727.2883,694,723.2883,698,732.2883" style="stroke:#181818;stroke-width:1.0;"/></g><!--link Train to MLflow--><g id="link_Train_MLflow"><path d="M701.2,779.1383 C704.24,800.4983 707.9334,826.5083 710.9734,847.8383 " fill="none" id="Train-to-MLflow" style="stroke:#181818;stroke-width:1.0;"/><polygon fill="#181818" points="711.82,853.7783,714.5101,844.3039,711.1145,848.8283,706.5901,845.4327,711.82,853.7783" style="stroke:#181818;stroke-width:1.0;"/></g><!--link MLflow to Postgres--><g id="link_MLflow_Postgres"><path d="M746.16,900.8583 C758.92,909.2783 774.16,918.2583 789,924.3883 C803.75,930.4783 810.01,924.7083 824,932.3883 C843.49,943.0983 857.2892,956.6254 869.4192,971.0554 " fill="none" id="MLflow-to-Postgres" style="stroke:#181818;stroke-width:1.0;"/><polygon fill="#181818" points="873.28,975.6483,870.5507,966.1851,870.0627,971.8209,864.4269,971.3329,873.28,975.6483" style="stroke:#181818;stroke-width:1.0;"/></g><!--link MLflow to Filesystem (Artifacts)--><g id="link_MLflow_Filesystem (Artifacts)"><path d="M715,900.6183 C715,921.9883 715,947.9283 715,969.2583 " fill="none" id="MLflow-to-Filesystem (Artifacts)" style="stroke:#181818;stroke-width:1.0;"/><polygon fill="#181818" points="715,975.2583,719,966.2583,715,970.2583,711,966.2583,715,975.2583" style="stroke:#181818;stroke-width:1.0;"/></g><!--link Airflow Scheduler to Redis Broker--><g id="link_Airflow Scheduler_Redis Broker"><path d="M811.89,212.5083 C939.2,222.4883 1172,262.3283 1172,420.1983 C1172,420.1983 1172,420.1983 1172,756.6583 C1172,847.0483 1102.9716,930.6561 1064.3716,970.7461 " fill="none" id="Airflow Scheduler-to-Redis Broker" style="stroke:#181818;stroke-width:1.0;"/><polygon fill="#181818" points="1060.21,975.0683,1069.3338,971.3594,1063.678,971.4664,1063.5709,965.8106,1060.21,975.0683" style="stroke:#181818;stroke-width:1.0;"/></g><!--link Airflow Worker to Postgres--><g id="link_Airflow Worker_Postgres"><path d="M697.37,316.0783 C829.97,320.9283 1101,352.1883 1101,526.6783 C1101,526.6783 1101,526.6783 1101,756.6583 C1101,840.2283 1084.1,875.9483 1016,924.3883 C994.44,939.7283 980.79,920.7983 957,932.3883 C936.71,942.2783 922.5278,956.0379 910.3078,970.7879 " fill="none" id="Airflow Worker-to-Postgres" style="stroke:#181818;stroke-width:1.0;"/><polygon fill="#181818" points="906.48,975.4083,915.302,971.0297,909.6699,971.558,909.1415,965.9259,906.48,975.4083" style="stroke:#181818;stroke-width:1.0;"/></g><!--link Prometheus to cAdvisor--><g id="link_Prometheus_cAdvisor"><path d="M349.67,1022.3083 C378.02,1039.8383 411.967,1060.8224 440.297,1078.3424 " fill="none" id="Prometheus-to-cAdvisor" style="stroke:#181818;stroke-width:1.0;"/><polygon fill="#181818" points="445.4,1081.4983,439.8494,1073.3625,441.1475,1078.8684,435.6416,1080.1665,445.4,1081.4983" style="stroke:#181818;stroke-width:1.0;"/></g><!--link Prometheus to Postgres Exporters--><g id="link_Prometheus_Postgres Exporters"><path d="M313,1022.3083 C313,1039.8383 313,1057.9783 313,1075.4983 " fill="none" id="Prometheus-to-Postgres Exporters" style="stroke:#181818;stroke-width:1.0;"/><polygon fill="#181818" points="313,1081.4983,317,1072.4983,313,1076.4983,309,1072.4983,313,1081.4983" style="stroke:#181818;stroke-width:1.0;"/></g><!--link Grafana to Prometheus--><g id="link_Grafana_Prometheus"><path d="M287.83,900.6183 C293.37,921.9883 300.1517,948.121 305.6917,969.451 " fill="none" id="Grafana-to-Prometheus" style="stroke:#181818;stroke-width:1.0;"/><polygon fill="#181818" points="307.2,975.2583,308.8091,965.5418,305.9431,970.4188,301.066,967.5529,307.2,975.2583" style="stroke:#181818;stroke-width:1.0;"/></g><!--link pgAdmin to Postgres--><g id="link_pgAdmin_Postgres"><path d="M451.71,900.7183 C468.18,909.8983 488.41,919.4783 508,924.3883 C542.07,932.9283 791.68,918.6383 824,932.3883 C845.05,941.3583 859.3736,955.7143 871.2336,970.9443 " fill="none" id="pgAdmin-to-Postgres" style="stroke:#181818;stroke-width:1.0;"/><polygon fill="#181818" points="874.92,975.6783,872.5463,966.1197,871.848,971.7333,866.2344,971.035,874.92,975.6783" style="stroke:#181818;stroke-width:1.0;"/></g><!--link Process Text to Postgres--><g id="link_Process Text_Postgres"><path d="M866.19,551.1483 C883.86,565.8983 904.32,586.8683 914,610.9283 C966.02,740.1683 935.97,786.8183 914,924.3883 C911.17,942.0983 906.8826,955.7377 901.3826,970.0477 " fill="none" id="Process Text-to-Postgres" style="stroke:#181818;stroke-width:1.0;"/><polygon fill="#181818" points="899.23,975.6483,906.1926,968.6825,901.0238,970.9811,898.7251,965.8124,899.23,975.6483" style="stroke:#181818;stroke-width:1.0;"/></g><!--link Process Image to Postgres--><g id="link_Process Image_Postgres"><path d="M736.08,550.9883 C782.71,567.5183 838.33,590.5983 853,610.9283 C935.86,725.7883 908.869,906.5473 896.059,969.9073 " fill="none" id="Process Image-to-Postgres" style="stroke:#181818;stroke-width:1.0;"/><polygon fill="#181818" points="894.87,975.7883,900.5742,967.7594,895.8608,970.8874,892.7328,966.1741,894.87,975.7883" style="stroke:#181818;stroke-width:1.0;"/></g><!--link Extract Text (PyTesseract) to Postgres--><g id="link_Extract Text (PyTesseract)_Postgres"><path d="M851.18,444.8783 C922.29,475.6783 1030,538.0283 1030,633.1683 C1030,633.1683 1030,633.1683 1030,756.6583 C1030,848.1083 957.9465,931.6395 918.0065,971.3195 " fill="none" id="Extract Text (PyTesseract)-to-Postgres" style="stroke:#181818;stroke-width:1.0;"/><polygon fill="#181818" points="913.75,975.5483,922.9539,972.0428,917.2971,972.0243,917.3155,966.3675,913.75,975.5483" style="stroke:#181818;stroke-width:1.0;"/></g><!--SRC=[dLHBRjj03Dth54GMYRC8UeC2hfCKAcn4ZHraKMGnaMXh44cZSYZNQT43zHozMAd_I5O-w4RGyFD8ldb3rfmWh5c5Jx31CCxqzmBX0lniIyeo5I4NXB1QtkJMyyxWKXE6h4q6MnKM2IlMUmIhWGlOOt40p20sf7-QZ5KY2Gbk6TW0wLtC4BNf9TR2566CSCSwqLOn5cGz5R8XE75i9w0it5aa9yNF64aQGElbqhdQ8PpqDXXa__80lgsPKAM9veVobE_cKQgpwlypgQtAr8Ftsy5V8-rrYJJFyqI7CkJMgJJbRUhC2uvXzkL-Srw11uIH3XbcryBbFF3FXsLkIBv2ige8FOKDASsOOiPziPTZsfAQjedv0Mk9Yue4wS6rtXjw6flm4UxyodHr463fRuC7QJ9utg0LeiNIjczaJ5kv1mO_bTugoyAaUS48L-aZHf7ETXPcYwKVV5XS-a6DKdPSSxrQbWsCg6PJJteArpgCDPBBzB6pdZfIh1wLbP30MDuHhhykAw4qHrkMknNoBNmYqp9mhHEqprReWzcSvDfaKZkwavN9j4XG9kdRw6qDvy93YXnZOIlSS1xjjJLraRO3k3haXaIJTgWpWAhSBIRLbTgX_akXmyN5nu5aUsE7qfiwCGkeymPAtwIC7U0QO4Aa4xOwrjMtr6ibXVB4U-rEIBB97eboBCbXb2FeSMOT-9fwfpE6Wduzfj7uTD1Rif_EQbx2_q4AtG7z_UFoF1ZddOqDntjdqYjCJn4hhVPGtblm5KBtRjyLtJ9vLgt3p6lEjQ_TCktF2D-rlhWH17abywYTr9Vb8tk8XAwNbJrSDPCNt7LGOlTBnjqbDLQ_JOvzKykbMmhTLNIxIKerwy7hziI8ZcCD7ViShVJEjpJHHlu3]--></g></svg>